<svg width="60" height="21" viewBox="0 0 60 21" fill="none" xmlns="http://www.w3.org/2000/svg">
<rect width="60" height="21" fill="#B43939"/>
<path d="M19.598 10.76L18.41 7.604C18.314 7.36 18.216 7.05 18.116 6.674C18.072 6.862 18.024 7.036 17.972 7.196C17.92 7.352 17.872 7.49 17.828 7.61L16.64 10.76H19.598ZM22.256 14H21.17C21.046 14 20.946 13.97 20.87 13.91C20.794 13.846 20.736 13.768 20.696 13.676L19.976 11.768H16.256L15.536 13.676C15.504 13.756 15.448 13.83 15.368 13.898C15.288 13.966 15.188 14 15.068 14H13.982L17.408 5.36H18.83L22.256 14ZM24.2908 12.464C24.4708 12.696 24.6668 12.86 24.8788 12.956C25.0948 13.048 25.3328 13.094 25.5928 13.094C26.0968 13.094 26.4888 12.91 26.7688 12.542C27.0528 12.174 27.1948 11.626 27.1948 10.898C27.1948 10.522 27.1628 10.202 27.0988 9.938C27.0348 9.67 26.9428 9.452 26.8228 9.284C26.7028 9.116 26.5568 8.994 26.3848 8.918C26.2128 8.842 26.0188 8.804 25.8028 8.804C25.4748 8.804 25.1908 8.876 24.9508 9.02C24.7148 9.16 24.4948 9.362 24.2908 9.626V12.464ZM24.2248 8.768C24.4808 8.468 24.7708 8.226 25.0948 8.042C25.4228 7.858 25.8028 7.766 26.2348 7.766C26.5788 7.766 26.8908 7.836 27.1708 7.976C27.4508 8.112 27.6908 8.312 27.8908 8.576C28.0908 8.84 28.2448 9.168 28.3528 9.56C28.4648 9.948 28.5208 10.394 28.5208 10.898C28.5208 11.35 28.4588 11.772 28.3348 12.164C28.2148 12.552 28.0408 12.89 27.8128 13.178C27.5848 13.462 27.3088 13.686 26.9848 13.85C26.6608 14.01 26.2948 14.09 25.8868 14.09C25.5268 14.09 25.2208 14.032 24.9688 13.916C24.7208 13.8 24.4948 13.64 24.2908 13.436V16.034H23.0008V7.88H23.7808C23.9568 7.88 24.0688 7.962 24.1168 8.126L24.2248 8.768ZM31.0643 12.464C31.2443 12.696 31.4403 12.86 31.6523 12.956C31.8683 13.048 32.1063 13.094 32.3663 13.094C32.8703 13.094 33.2623 12.91 33.5423 12.542C33.8263 12.174 33.9683 11.626 33.9683 10.898C33.9683 10.522 33.9363 10.202 33.8723 9.938C33.8083 9.67 33.7163 9.452 33.5963 9.284C33.4763 9.116 33.3303 8.994 33.1583 8.918C32.9863 8.842 32.7923 8.804 32.5763 8.804C32.2483 8.804 31.9643 8.876 31.7243 9.02C31.4883 9.16 31.2683 9.362 31.0643 9.626V12.464ZM30.9983 8.768C31.2543 8.468 31.5443 8.226 31.8683 8.042C32.1963 7.858 32.5763 7.766 33.0083 7.766C33.3523 7.766 33.6643 7.836 33.9443 7.976C34.2243 8.112 34.4643 8.312 34.6643 8.576C34.8643 8.84 35.0183 9.168 35.1263 9.56C35.2383 9.948 35.2943 10.394 35.2943 10.898C35.2943 11.35 35.2323 11.772 35.1083 12.164C34.9883 12.552 34.8143 12.89 34.5863 13.178C34.3583 13.462 34.0823 13.686 33.7583 13.85C33.4343 14.01 33.0683 14.09 32.6603 14.09C32.3003 14.09 31.9943 14.032 31.7423 13.916C31.4943 13.8 31.2683 13.64 31.0643 13.436V16.034H29.7743V7.88H30.5543C30.7303 7.88 30.8423 7.962 30.8903 8.126L30.9983 8.768ZM37.8617 5.12V14H36.5717V5.12H37.8617ZM44.884 7.88L41.512 15.74C41.468 15.832 41.414 15.904 41.35 15.956C41.29 16.008 41.196 16.034 41.068 16.034H40.114L41.242 13.586L38.746 7.88H39.868C39.976 7.88 40.058 7.906 40.114 7.958C40.174 8.006 40.218 8.064 40.246 8.132L41.704 11.606C41.74 11.706 41.772 11.806 41.8 11.906C41.832 12.002 41.862 12.102 41.89 12.206C41.922 12.102 41.954 12 41.986 11.9C42.018 11.8 42.054 11.7 42.094 11.6L43.492 8.132C43.52 8.06 43.566 8 43.63 7.952C43.698 7.904 43.772 7.88 43.852 7.88H44.884Z" fill="black"/>
</svg>
