<svg width="256" height="252" viewBox="0 0 256 252" fill="none" xmlns="http://www.w3.org/2000/svg">
<g filter="url(#filter0_d_0_1)">
<path d="M61.7189 57.6241C61.1539 51.75 65.7718 46.6666 71.673 46.6666H126.5H181.327C187.228 46.6666 191.846 51.75 191.281 57.6241L173.454 242.957C172.961 248.086 168.652 252 163.5 252H89.4998C84.3478 252 80.039 248.086 79.5457 242.957L61.7189 57.6241Z" fill="#DFB28C"/>
<path d="M188.295 57.3368L170.468 242.67C170.123 246.26 167.107 249 163.5 249H89.4998C85.8934 249 82.8772 246.26 82.5319 242.67L64.7052 57.3368C64.3097 53.225 67.5422 49.6666 71.673 49.6666H126.5H181.327C185.458 49.6666 188.69 53.225 188.295 57.3368Z" stroke="black" stroke-width="6"/>
</g>
<rect x="63.665" y="49.6666" width="125.67" height="34" rx="7" fill="#DFB28C" stroke="black" stroke-width="6"/>
<rect width="16.7957" height="245.107" rx="5" transform="matrix(0.982605 0.185707 -0.184811 0.982774 174.459 0)" fill="black"/>
<ellipse cx="106.883" cy="204.333" rx="8.3125" ry="8.33334" fill="black"/>
<ellipse cx="106.883" cy="204.333" rx="8.3125" ry="8.33334" fill="black"/>
<ellipse cx="106.883" cy="204.333" rx="8.3125" ry="8.33334" fill="black"/>
<ellipse cx="106.883" cy="204.333" rx="8.3125" ry="8.33334" fill="black"/>
<ellipse cx="106.883" cy="204.333" rx="8.3125" ry="8.33334" fill="black"/>
<ellipse cx="106.883" cy="204.333" rx="8.3125" ry="8.33334" fill="black"/>
<ellipse cx="98.2375" cy="163" rx="8.3125" ry="8.33333" fill="black"/>
<ellipse cx="98.2375" cy="163" rx="8.3125" ry="8.33333" fill="black"/>
<ellipse cx="98.2375" cy="163" rx="8.3125" ry="8.33333" fill="black"/>
<ellipse cx="98.2375" cy="163" rx="8.3125" ry="8.33333" fill="black"/>
<ellipse cx="98.2375" cy="163" rx="8.3125" ry="8.33333" fill="black"/>
<ellipse cx="98.2375" cy="163" rx="8.3125" ry="8.33333" fill="black"/>
<ellipse cx="118.188" cy="179.667" rx="8.3125" ry="8.33334" fill="black"/>
<ellipse cx="118.188" cy="179.667" rx="8.3125" ry="8.33334" fill="black"/>
<ellipse cx="118.188" cy="179.667" rx="8.3125" ry="8.33334" fill="black"/>
<ellipse cx="118.188" cy="179.667" rx="8.3125" ry="8.33334" fill="black"/>
<ellipse cx="118.188" cy="179.667" rx="8.3125" ry="8.33334" fill="black"/>
<ellipse cx="118.188" cy="179.667" rx="8.3125" ry="8.33334" fill="black"/>
<ellipse cx="118.188" cy="223.667" rx="8.3125" ry="8.33334" fill="black"/>
<ellipse cx="118.188" cy="223.667" rx="8.3125" ry="8.33334" fill="black"/>
<ellipse cx="118.188" cy="223.667" rx="8.3125" ry="8.33334" fill="black"/>
<ellipse cx="118.188" cy="223.667" rx="8.3125" ry="8.33334" fill="black"/>
<ellipse cx="118.188" cy="223.667" rx="8.3125" ry="8.33334" fill="black"/>
<ellipse cx="118.188" cy="223.667" rx="8.3125" ry="8.33334" fill="black"/>
<ellipse cx="98.9025" cy="232.333" rx="8.3125" ry="8.33334" fill="black"/>
<ellipse cx="98.9025" cy="232.333" rx="8.3125" ry="8.33334" fill="black"/>
<ellipse cx="98.9025" cy="232.333" rx="8.3125" ry="8.33334" fill="black"/>
<ellipse cx="98.9025" cy="232.333" rx="8.3125" ry="8.33334" fill="black"/>
<ellipse cx="98.9025" cy="232.333" rx="8.3125" ry="8.33334" fill="black"/>
<ellipse cx="98.9025" cy="232.333" rx="8.3125" ry="8.33334" fill="black"/>
<ellipse cx="8.32246" cy="8.32339" rx="8.32246" ry="8.32339" transform="matrix(0.721743 0.692161 -0.690354 0.723472 126.687 188)" fill="black"/>
<ellipse cx="8.32246" cy="8.32339" rx="8.32246" ry="8.32339" transform="matrix(0.721743 0.692161 -0.690354 0.723472 126.687 188)" fill="black"/>
<ellipse cx="8.32246" cy="8.32339" rx="8.32246" ry="8.32339" transform="matrix(0.721743 0.692161 -0.690354 0.723472 126.687 188)" fill="black"/>
<ellipse cx="8.32246" cy="8.32339" rx="8.32246" ry="8.32339" transform="matrix(0.721743 0.692161 -0.690354 0.723472 126.687 188)" fill="black"/>
<ellipse cx="8.32246" cy="8.32339" rx="8.32246" ry="8.32339" transform="matrix(0.721743 0.692161 -0.690354 0.723472 126.687 188)" fill="black"/>
<ellipse cx="8.32246" cy="8.32339" rx="8.32246" ry="8.32339" transform="matrix(0.721743 0.692161 -0.690354 0.723472 126.687 188)" fill="black"/>
<ellipse cx="160.083" cy="236.333" rx="8.3125" ry="8.33334" fill="black"/>
<ellipse cx="160.083" cy="236.333" rx="8.3125" ry="8.33334" fill="black"/>
<ellipse cx="160.083" cy="236.333" rx="8.3125" ry="8.33334" fill="black"/>
<ellipse cx="160.083" cy="236.333" rx="8.3125" ry="8.33334" fill="black"/>
<ellipse cx="160.083" cy="236.333" rx="8.3125" ry="8.33334" fill="black"/>
<ellipse cx="160.083" cy="236.333" rx="8.3125" ry="8.33334" fill="black"/>
<ellipse cx="91.5875" cy="188.333" rx="8.3125" ry="8.33334" fill="black"/>
<ellipse cx="91.5875" cy="188.333" rx="8.3125" ry="8.33334" fill="black"/>
<ellipse cx="91.5875" cy="188.333" rx="8.3125" ry="8.33334" fill="black"/>
<ellipse cx="91.5875" cy="188.333" rx="8.3125" ry="8.33334" fill="black"/>
<ellipse cx="91.5875" cy="188.333" rx="8.3125" ry="8.33334" fill="black"/>
<ellipse cx="91.5875" cy="188.333" rx="8.3125" ry="8.33334" fill="black"/>
<ellipse cx="8.31275" cy="8.33308" rx="8.31275" ry="8.33308" transform="matrix(0.993813 0.111068 -0.11052 0.993874 113.507 231.795)" fill="black"/>
<ellipse cx="8.31275" cy="8.33308" rx="8.31275" ry="8.33308" transform="matrix(0.993813 0.111068 -0.11052 0.993874 113.507 231.795)" fill="black"/>
<ellipse cx="8.31275" cy="8.33308" rx="8.31275" ry="8.33308" transform="matrix(0.993813 0.111068 -0.11052 0.993874 113.507 231.795)" fill="black"/>
<ellipse cx="8.31275" cy="8.33308" rx="8.31275" ry="8.33308" transform="matrix(0.993813 0.111068 -0.11052 0.993874 113.507 231.795)" fill="black"/>
<ellipse cx="8.31275" cy="8.33308" rx="8.31275" ry="8.33308" transform="matrix(0.993813 0.111068 -0.11052 0.993874 113.507 231.795)" fill="black"/>
<ellipse cx="8.31275" cy="8.33308" rx="8.31275" ry="8.33308" transform="matrix(0.993813 0.111068 -0.11052 0.993874 113.507 231.795)" fill="black"/>
<ellipse cx="162.742" cy="196.333" rx="8.3125" ry="8.33334" fill="black"/>
<ellipse cx="162.742" cy="196.333" rx="8.3125" ry="8.33334" fill="black"/>
<ellipse cx="162.742" cy="196.333" rx="8.3125" ry="8.33334" fill="black"/>
<ellipse cx="162.742" cy="196.333" rx="8.3125" ry="8.33334" fill="black"/>
<ellipse cx="162.742" cy="196.333" rx="8.3125" ry="8.33334" fill="black"/>
<ellipse cx="162.742" cy="196.333" rx="8.3125" ry="8.33334" fill="black"/>
<ellipse cx="160.083" cy="216.333" rx="8.3125" ry="8.33334" fill="black"/>
<ellipse cx="160.083" cy="216.333" rx="8.3125" ry="8.33334" fill="black"/>
<ellipse cx="160.083" cy="216.333" rx="8.3125" ry="8.33334" fill="black"/>
<ellipse cx="160.083" cy="216.333" rx="8.3125" ry="8.33334" fill="black"/>
<ellipse cx="160.083" cy="216.333" rx="8.3125" ry="8.33334" fill="black"/>
<ellipse cx="160.083" cy="216.333" rx="8.3125" ry="8.33334" fill="black"/>
<ellipse cx="91.5875" cy="215" rx="8.3125" ry="8.33333" fill="black"/>
<ellipse cx="91.5875" cy="215" rx="8.3125" ry="8.33333" fill="black"/>
<ellipse cx="91.5875" cy="215" rx="8.3125" ry="8.33333" fill="black"/>
<ellipse cx="91.5875" cy="215" rx="8.3125" ry="8.33333" fill="black"/>
<ellipse cx="91.5875" cy="215" rx="8.3125" ry="8.33333" fill="black"/>
<ellipse cx="91.5875" cy="215" rx="8.3125" ry="8.33333" fill="black"/>
<rect x="60" y="46.6666" width="133" height="5.33333" fill="#E06363"/>
<defs>
<filter id="filter0_d_0_1" x="57.6721" y="46.6666" width="137.656" height="213.333" filterUnits="userSpaceOnUse" color-interpolation-filters="sRGB">
<feFlood flood-opacity="0" result="BackgroundImageFix"/>
<feColorMatrix in="SourceAlpha" type="matrix" values="0 0 0 0 0 0 0 0 0 0 0 0 0 0 0 0 0 0 127 0" result="hardAlpha"/>
<feOffset dy="4"/>
<feGaussianBlur stdDeviation="2"/>
<feComposite in2="hardAlpha" operator="out"/>
<feColorMatrix type="matrix" values="0 0 0 0 0 0 0 0 0 0 0 0 0 0 0 0 0 0 0.25 0"/>
<feBlend mode="normal" in2="BackgroundImageFix" result="effect1_dropShadow_0_1"/>
<feBlend mode="normal" in="SourceGraphic" in2="effect1_dropShadow_0_1" result="shape"/>
</filter>
</defs>
</svg>
