<svg width="110" height="151" viewBox="0 0 110 151" fill="none" xmlns="http://www.w3.org/2000/svg">
<rect y="9" width="110" height="142" rx="15" fill="black"/>
<path d="M7 39C7 30.7157 13.7157 24 22 24H88C96.2843 24 103 30.7157 103 39V130C103 138.284 96.2843 145 88 145H22C13.7157 145 7 138.284 7 130V39Z" fill="#F5F5F5"/>
<rect x="32.5" y="17.0484" width="45" height="13.4516" rx="6.72581" fill="#D9D9D9" stroke="black"/>
<rect x="32.5" y="24.2742" width="45" height="6.22581" fill="#D9D9D9" stroke="black"/>
<mask id="path-5-outside-1_9_102" maskUnits="userSpaceOnUse" x="47" y="0" width="17" height="17" fill="black">
<rect fill="white" x="47" width="17" height="17"/>
<path fill-rule="evenodd" clip-rule="evenodd" d="M55.5 16C59.6421 16 63 12.6421 63 8.5C63 4.35786 59.6421 1 55.5 1C51.3579 1 48 4.35786 48 8.5C48 12.6421 51.3579 16 55.5 16ZM55.5 13.5C58.2614 13.5 60.5 11.2614 60.5 8.50001C60.5 5.73858 58.2614 3.50001 55.5 3.50001C52.7386 3.50001 50.5 5.73858 50.5 8.50001C50.5 11.2614 52.7386 13.5 55.5 13.5Z"/>
</mask>
<path fill-rule="evenodd" clip-rule="evenodd" d="M55.5 16C59.6421 16 63 12.6421 63 8.5C63 4.35786 59.6421 1 55.5 1C51.3579 1 48 4.35786 48 8.5C48 12.6421 51.3579 16 55.5 16ZM55.5 13.5C58.2614 13.5 60.5 11.2614 60.5 8.50001C60.5 5.73858 58.2614 3.50001 55.5 3.50001C52.7386 3.50001 50.5 5.73858 50.5 8.50001C50.5 11.2614 52.7386 13.5 55.5 13.5Z" fill="#D9D9D9"/>
<path d="M62 8.5C62 12.0899 59.0899 15 55.5 15V17C60.1944 17 64 13.1944 64 8.5H62ZM55.5 2C59.0899 2 62 4.91015 62 8.5H64C64 3.80558 60.1944 0 55.5 0V2ZM49 8.5C49 4.91015 51.9101 2 55.5 2V0C50.8056 0 47 3.80558 47 8.5H49ZM55.5 15C51.9101 15 49 12.0899 49 8.5H47C47 13.1944 50.8056 17 55.5 17V15ZM59.5 8.50001C59.5 10.7091 57.7091 12.5 55.5 12.5V14.5C58.8137 14.5 61.5 11.8137 61.5 8.50001H59.5ZM55.5 4.50001C57.7091 4.50001 59.5 6.29087 59.5 8.50001H61.5C61.5 5.1863 58.8137 2.50001 55.5 2.50001V4.50001ZM51.5 8.50001C51.5 6.29087 53.2909 4.50001 55.5 4.50001V2.50001C52.1863 2.50001 49.5 5.1863 49.5 8.50001H51.5ZM55.5 12.5C53.2909 12.5 51.5 10.7091 51.5 8.50001H49.5C49.5 11.8137 52.1863 14.5 55.5 14.5V12.5Z" fill="black" mask="url(#path-5-outside-1_9_102)"/>
<line x1="19" y1="46.5" x2="91" y2="46.5" stroke="black"/>
<line x1="19" y1="57.5" x2="91" y2="57.5" stroke="black"/>
<line x1="19" y1="68.5" x2="91" y2="68.5" stroke="black"/>
<line x1="19" y1="112.5" x2="91" y2="112.5" stroke="black"/>
<line x1="19" y1="123.5" x2="91" y2="123.5" stroke="black"/>
<line x1="19" y1="79.5" x2="91" y2="79.5" stroke="black"/>
<line x1="19" y1="90.5" x2="91" y2="90.5" stroke="black"/>
<line x1="19" y1="101.5" x2="91" y2="101.5" stroke="black"/>
</svg>
