<svg width="354" height="275" viewBox="0 0 354 275" fill="none" xmlns="http://www.w3.org/2000/svg">
<rect x="52" y="42" width="13" height="219" fill="#1A1A1A" stroke="#262626" stroke-width="4"/>
<rect x="99.5" y="98.5" width="233" height="130" rx="14.5" fill="#1A1A1A" stroke="black" stroke-width="3"/>
<rect x="185" y="149" width="64" height="102" fill="#1A1A1A" stroke="#262626" stroke-width="4"/>
<rect x="22" y="238" width="330" height="35" rx="7" fill="#1A1A1A" stroke="#262626" stroke-width="4"/>
<rect x="2" y="2" width="114" height="56" rx="12" fill="#1A1A1A" stroke="#262626" stroke-width="4"/>
<rect x="5" y="5" width="108" height="50" rx="10" fill="#698180"/>
<path d="M17.544 20.1776C16.9096 20.1776 16.3627 20.0272 15.9034 19.7266C15.4441 19.4235 15.0902 18.9891 14.8416 18.4233C14.593 17.8551 14.4699 17.1721 14.4723 16.3743C14.4747 15.5765 14.599 14.8994 14.8452 14.343C15.0938 13.7843 15.4465 13.3594 15.9034 13.0682C16.3627 12.7746 16.9096 12.6278 17.544 12.6278C18.1785 12.6278 18.7254 12.7746 19.1847 13.0682C19.6463 13.3594 20.0014 13.7843 20.25 14.343C20.4986 14.9018 20.6217 15.5788 20.6193 16.3743C20.6193 17.1745 20.495 17.8587 20.2464 18.4268C19.9979 18.995 19.6439 19.4295 19.1847 19.7301C18.7277 20.0284 18.1809 20.1776 17.544 20.1776ZM17.544 18.7393C17.9228 18.7393 18.2294 18.5464 18.4638 18.1605C18.6982 17.7723 18.8142 17.1768 18.8118 16.3743C18.8118 15.8487 18.7585 15.4155 18.652 15.0746C18.5455 14.7313 18.3975 14.4756 18.2081 14.3075C18.0187 14.1394 17.7973 14.0554 17.544 14.0554C17.1676 14.0554 16.8634 14.246 16.6314 14.6271C16.3994 15.0059 16.2822 15.5883 16.2798 16.3743C16.2775 16.907 16.3284 17.3485 16.4325 17.6989C16.5391 18.0492 16.6882 18.3108 16.88 18.4837C17.0717 18.6541 17.2931 18.7393 17.544 18.7393ZM22.3043 20.103C22.0487 20.103 21.8297 20.013 21.6474 19.8331C21.4674 19.6532 21.3787 19.4354 21.381 19.1797C21.3787 18.9287 21.4674 18.7145 21.6474 18.5369C21.8297 18.357 22.0487 18.267 22.3043 18.267C22.5458 18.267 22.7589 18.357 22.9435 18.5369C23.1306 18.7145 23.2253 18.9287 23.2276 19.1797C23.2253 19.3501 23.1803 19.5052 23.0927 19.6449C23.0075 19.7846 22.895 19.8958 22.7553 19.9787C22.618 20.0616 22.4677 20.103 22.3043 20.103ZM27.0558 20.1776C26.4213 20.1776 25.8744 20.0272 25.4151 19.7266C24.9558 19.4235 24.6019 18.9891 24.3533 18.4233C24.1048 17.8551 23.9817 17.1721 23.984 16.3743C23.9864 15.5765 24.1107 14.8994 24.3569 14.343C24.6055 13.7843 24.9582 13.3594 25.4151 13.0682C25.8744 12.7746 26.4213 12.6278 27.0558 12.6278C27.6902 12.6278 28.2371 12.7746 28.6964 13.0682C29.158 13.3594 29.5131 13.7843 29.7617 14.343C30.0103 14.9018 30.1334 15.5788 30.131 16.3743C30.131 17.1745 30.0067 17.8587 29.7582 18.4268C29.5096 18.995 29.1557 19.4295 28.6964 19.7301C28.2395 20.0284 27.6926 20.1776 27.0558 20.1776ZM27.0558 18.7393C27.4345 18.7393 27.7411 18.5464 27.9755 18.1605C28.2099 17.7723 28.3259 17.1768 28.3235 16.3743C28.3235 15.8487 28.2702 15.4155 28.1637 15.0746C28.0572 14.7313 27.9092 14.4756 27.7198 14.3075C27.5304 14.1394 27.3091 14.0554 27.0558 14.0554C26.6793 14.0554 26.3751 14.246 26.1431 14.6271C25.9111 15.0059 25.7939 15.5883 25.7915 16.3743C25.7892 16.907 25.8401 17.3485 25.9442 17.6989C26.0508 18.0492 26.1999 18.3108 26.3917 18.4837C26.5835 18.6541 26.8048 18.7393 27.0558 18.7393ZM34.1456 20.1776C33.5111 20.1776 32.9643 20.0272 32.505 19.7266C32.0457 19.4235 31.6918 18.9891 31.4432 18.4233C31.1946 17.8551 31.0715 17.1721 31.0739 16.3743C31.0762 15.5765 31.2005 14.8994 31.4467 14.343C31.6953 13.7843 32.0481 13.3594 32.505 13.0682C32.9643 12.7746 33.5111 12.6278 34.1456 12.6278C34.7801 12.6278 35.3269 12.7746 35.7862 13.0682C36.2479 13.3594 36.603 13.7843 36.8516 14.343C37.1001 14.9018 37.2232 15.5788 37.2209 16.3743C37.2209 17.1745 37.0966 17.8587 36.848 18.4268C36.5994 18.995 36.2455 19.4295 35.7862 19.7301C35.3293 20.0284 34.7824 20.1776 34.1456 20.1776ZM34.1456 18.7393C34.5244 18.7393 34.831 18.5464 35.0653 18.1605C35.2997 17.7723 35.4157 17.1768 35.4134 16.3743C35.4134 15.8487 35.3601 15.4155 35.2536 15.0746C35.147 14.7313 34.9991 14.4756 34.8097 14.3075C34.6203 14.1394 34.3989 14.0554 34.1456 14.0554C33.7692 14.0554 33.465 14.246 33.233 14.6271C33.0009 15.0059 32.8838 15.5883 32.8814 16.3743C32.879 16.907 32.9299 17.3485 33.0341 17.6989C33.1406 18.0492 33.2898 18.3108 33.4815 18.4837C33.6733 18.6541 33.8946 18.7393 34.1456 18.7393Z" fill="black"/>
</svg>
