<svg width="3676" height="3513" viewBox="0 0 3676 3513" fill="none" xmlns="http://www.w3.org/2000/svg">
<rect x="1549.3" y="2110.85" width="426" height="1401" transform="rotate(26.7914 1549.3 2110.85)" fill="#FFAD4C"/>
<rect x="1412.36" y="1840.73" width="136.641" height="413.922" rx="68.3203" transform="rotate(-9.35226 1412.36 1840.73)" fill="#FFAD4C"/>
<rect x="1737.13" y="1444.43" width="136.641" height="448.454" rx="68.3203" transform="rotate(18.9441 1737.13 1444.43)" fill="#FFAD4C"/>
<rect x="1961.61" y="1462.93" width="136.641" height="413.922" rx="68.3203" transform="rotate(26.4656 1961.61 1462.93)" fill="#FFAD4C"/>
<rect x="2129.38" y="1612.87" width="136.641" height="413.922" rx="68.3203" transform="rotate(30.0245 2129.38 1612.87)" fill="#FFAD4C"/>
<rect x="2261.99" y="1815.38" width="111.806" height="412.066" rx="55.9031" transform="rotate(41.312 2261.99 1815.38)" fill="#FFAD4C"/>
<path d="M1594.33 1856.62C1632.7 1757.35 1748.36 1712.86 1843.37 1760.83L2065.45 1872.97C2160.06 1920.74 2193.12 2039.5 2136.81 2129.28L1993.28 2358.16C1943.89 2436.92 1842.64 2465.1 1759.65 2423.2L1570.92 2327.9C1482.18 2283.09 1446.57 2174.83 1491.38 2086.09L1552.23 1965.58L1594.33 1856.62Z" fill="#FFAD4C"/>
<rect x="1463.29" y="1470.23" width="426" height="1401" transform="rotate(109.3 1463.29 1470.23)" fill="#FFF068"/>
<rect x="1713.25" y="1299.23" width="136.641" height="413.922" rx="68.3203" transform="rotate(73.1564 1713.25 1299.23)" fill="#FFF068"/>
<rect x="2148.51" y="1569.57" width="136.641" height="448.454" rx="68.3203" transform="rotate(101.453 2148.51 1569.57)" fill="#FFF068"/>
<rect x="2159.44" y="1794.54" width="136.641" height="413.922" rx="68.3203" transform="rotate(108.974 2159.44 1794.54)" fill="#FFF068"/>
<rect x="2032.66" y="1980.43" width="136.641" height="413.922" rx="68.3203" transform="rotate(112.533 2032.66 1980.43)" fill="#FFF068"/>
<rect x="1849.15" y="2138.31" width="111.806" height="412.066" rx="55.9031" transform="rotate(123.821 1849.15 2138.31)" fill="#FFF068"/>
<path d="M1721.22 1481.73C1824.65 1506.83 1883.84 1615.7 1848.66 1716.15L1766.43 1950.96C1731.41 2050.99 1617.97 2099.25 1521.61 2055.13L1275.98 1942.66C1191.45 1903.96 1150.31 1807.25 1181.03 1719.51L1250.91 1519.96C1283.77 1426.14 1386.47 1376.71 1480.29 1409.57L1607.7 1454.19L1721.22 1481.73Z" fill="#FFF068"/>
<rect x="2511.76" y="1746.5" width="426" height="1401" transform="rotate(-123.822 2511.76 1746.5)" fill="#F1EAAD"/>
<rect x="2498.53" y="2049.07" width="136.641" height="413.922" rx="68.3203" transform="rotate(-159.966 2498.53 2049.07)" fill="#F1EAAD"/>
<rect x="2021.07" y="2235" width="136.641" height="448.454" rx="68.3203" transform="rotate(-131.669 2021.07 2235)" fill="#F1EAAD"/>
<rect x="1834.56" y="2108.73" width="136.641" height="413.922" rx="68.3203" transform="rotate(-124.148 1834.56 2108.73)" fill="#F1EAAD"/>
<rect x="1761.95" y="1895.77" width="136.641" height="413.922" rx="68.3203" transform="rotate(-120.589 1761.95 1895.77)" fill="#F1EAAD"/>
<rect x="1745.78" y="1654.24" width="111.806" height="412.066" rx="55.9031" transform="rotate(-109.301 1745.78 1654.24)" fill="#F1EAAD"/>
<path d="M2347.76 1945.92C2265.62 2013.6 2143.01 1995.61 2083.77 1907.19L1945.29 1700.5C1886.3 1612.45 1915.76 1492.75 2008.88 1442.15L2246.25 1313.16C2327.94 1268.77 2429.99 1293.89 2481.74 1371.13L2599.42 1546.77C2654.75 1629.36 2632.66 1741.17 2550.07 1796.5L2437.92 1871.65L2347.76 1945.92Z" fill="#F1EAAD"/>
<rect x="2113.08" y="1400.93" width="426" height="1401" transform="rotate(-179.818 2113.08 1400.93)" fill="#510000"/>
<rect x="2356.51" y="1581.1" width="136.641" height="413.922" rx="68.3203" transform="rotate(144.038 2356.51 1581.1)" fill="#510000"/>
<rect x="2243.64" y="2080.9" width="136.641" height="448.454" rx="68.3203" transform="rotate(172.334 2243.64 2080.9)" fill="#510000"/>
<rect x="2034.65" y="2164.9" width="136.641" height="413.922" rx="68.3203" transform="rotate(179.856 2034.65 2164.9)" fill="#510000"/>
<rect x="1817.49" y="2106" width="136.641" height="413.922" rx="68.3203" transform="rotate(-176.585 1817.49 2106)" fill="#510000"/>
<rect x="1608.22" y="1984.33" width="111.806" height="412.066" rx="55.9031" transform="rotate(-165.298 1608.22 1984.33)" fill="#510000"/>
<path d="M2186.68 1648.41C2196.85 1754.35 2113.37 1845.93 2006.94 1845.6L1758.14 1844.81C1652.16 1844.47 1569.41 1753.1 1579.54 1647.61L1605.35 1378.69C1614.24 1286.15 1692.13 1215.6 1785.1 1215.89L1996.53 1216.56C2095.94 1216.88 2176.27 1297.72 2175.96 1397.13L2175.53 1532.13L2186.68 1648.41Z" fill="#510000"/>
<g filter="url(#filter0_d_0_1)">
<rect x="2037.61" y="2410.14" width="426" height="1401" transform="rotate(-38.0453 2037.61 2410.14)" fill="#D06400"/>
<rect x="1734.89" y="2419.24" width="136.641" height="413.922" rx="68.3203" transform="rotate(-74.189 1734.89 2419.24)" fill="#D06400"/>
<rect x="1514.3" y="1956.77" width="136.641" height="448.454" rx="68.3203" transform="rotate(-45.8926 1514.3 1956.77)" fill="#D06400"/>
<rect x="1626.49" y="1761.47" width="136.641" height="413.922" rx="68.3203" transform="rotate(-38.3711 1626.49 1761.47)" fill="#D06400"/>
<rect x="1833.53" y="1673.37" width="136.641" height="413.922" rx="68.3203" transform="rotate(-34.8123 1833.53 1673.37)" fill="#D06400"/>
<rect x="2073.21" y="1639.46" width="111.806" height="412.066" rx="55.9031" transform="rotate(-23.5248 2073.21 1639.46)" fill="#D06400"/>
<path d="M1826.65 2261.28C1753.11 2184.35 1762.02 2060.75 1845.84 1995.15L2041.77 1841.83C2125.23 1776.51 2246.78 1797.08 2304.1 1886.22L2450.22 2113.45C2500.5 2191.64 2482.97 2295.27 2409.75 2352.56L2243.25 2482.86C2164.96 2544.13 2051.83 2530.33 1990.56 2452.04L1907.37 2345.72L1826.65 2261.28Z" fill="#D06400"/>
</g>
<defs>
<filter id="filter0_d_0_1" x="1542.58" y="1612.48" width="1713.93" height="1925.98" filterUnits="userSpaceOnUse" color-interpolation-filters="sRGB">
<feFlood flood-opacity="0" result="BackgroundImageFix"/>
<feColorMatrix in="SourceAlpha" type="matrix" values="0 0 0 0 0 0 0 0 0 0 0 0 0 0 0 0 0 0 127 0" result="hardAlpha"/>
<feOffset dx="10" dy="15"/>
<feGaussianBlur stdDeviation="5"/>
<feComposite in2="hardAlpha" operator="out"/>
<feColorMatrix type="matrix" values="0 0 0 0 0 0 0 0 0 0 0 0 0 0 0 0 0 0 0.42 0"/>
<feBlend mode="normal" in2="BackgroundImageFix" result="effect1_dropShadow_0_1"/>
<feBlend mode="normal" in="SourceGraphic" in2="effect1_dropShadow_0_1" result="shape"/>
</filter>
</defs>
</svg>
