<svg width="3676" height="3513" viewBox="0 0 3676 3513" fill="none" xmlns="http://www.w3.org/2000/svg">
<rect width="1229.59" height="1348.46" transform="matrix(0.861293 0.508108 -2.15605e-08 1 714.847 1172.48)" fill="#FEDAFF"/>
<rect width="845.012" height="825.673" transform="matrix(0.861293 0.508108 -2.15605e-08 1 127.387 2283.76)" fill="#FEDAFF"/>
<rect width="2064.24" height="1335.4" transform="matrix(0.861293 -0.508108 2.15605e-08 1 1772.5 1810)" fill="#FFE7FF"/>
<rect width="930.542" height="839.734" transform="matrix(0.861293 -0.508108 2.15605e-08 1 854.865 2701.26)" fill="#FFE7FF"/>
<rect width="452.826" height="654.39" transform="matrix(0.861293 -0.508108 2.15605e-08 1 1060.24 2766.25)" fill="#E4E4E4"/>
<path d="M2612.2 2222.22L2599.68 2233.97L2599 2218.42L2612.2 2222.22Z" fill="#D20000" stroke="black" stroke-width="0.1"/>
<path d="M2690.84 2319.94C2690.84 2397.97 2635.27 2487.31 2566.72 2519.49C2498.16 2551.67 2442.59 2514.51 2442.59 2436.48C2442.59 2358.45 2498.16 2269.11 2566.72 2236.93C2635.27 2204.74 2690.84 2241.91 2690.84 2319.94Z" fill="#FFD7A9"/>
<rect width="839.947" height="931.007" transform="matrix(0.866025 0.5 -0.866026 0.5 932.276 1827.68)" fill="#FEC7FF"/>
<path d="M2595.76 368.26L3544.52 767.265L1772.51 1810.07L957.183 1204.2L2595.76 368.26Z" fill="#FFE7D6"/>
<rect width="284.443" height="473.388" transform="matrix(0.861293 -0.508108 2.15605e-08 1 2443.97 2275.47)" fill="#FFD7A9"/>
<path d="M2715.05 2201.19C2715.05 2171.35 2709.95 2144.74 2700.05 2122.89C2690.14 2101.04 2675.63 2084.37 2657.33 2073.84C2639.02 2063.31 2617.3 2059.11 2593.39 2061.5C2569.48 2063.88 2543.85 2072.8 2517.97 2087.75C2492.09 2102.69 2466.46 2123.36 2442.55 2148.59C2418.63 2173.81 2396.91 2203.09 2378.61 2234.76C2360.31 2266.42 2345.79 2299.85 2335.89 2333.14C2325.98 2366.43 2320.88 2398.92 2320.88 2428.76L2396.02 2385.38C2396.02 2366.91 2399.18 2346.81 2405.3 2326.21C2411.43 2305.62 2420.42 2284.93 2431.74 2265.34C2443.06 2245.75 2456.51 2227.63 2471.3 2212.02C2486.1 2196.41 2501.95 2183.62 2517.97 2174.38C2533.98 2165.13 2549.84 2159.61 2564.63 2158.14C2579.43 2156.66 2592.87 2159.26 2604.19 2165.77C2615.52 2172.29 2624.5 2182.6 2630.63 2196.12C2636.76 2209.64 2639.91 2226.1 2639.91 2244.57L2715.05 2201.19Z" fill="#FFBCBC"/>
<path d="M2506.55 2118.49L2547.23 2118.49L2595.34 2146.83L2384.5 2499.19L2320.88 2428.64L2397.55 2262.61L2450.88 2171.07L2506.55 2118.49Z" fill="#FFBCBC"/>
<path d="M2640.71 2242.3L2640.71 2187.33L2755.77 2264.69L2703.63 2314.91L2640.71 2242.3Z" fill="#FEA2A2"/>
<path d="M2778.67 2271.74C2778.67 2241.9 2773.57 2215.3 2763.67 2193.45C2753.76 2171.6 2739.25 2154.93 2720.95 2144.4C2702.64 2133.86 2680.92 2129.67 2657.01 2132.05C2633.1 2134.44 2607.47 2143.36 2581.59 2158.3C2555.71 2173.24 2530.08 2193.92 2506.17 2219.14C2482.26 2244.37 2460.53 2273.65 2442.23 2305.31C2423.93 2336.98 2409.41 2370.41 2399.51 2403.7C2389.6 2436.98 2384.5 2469.47 2384.5 2499.31L2459.64 2455.93C2459.64 2437.47 2462.8 2417.37 2468.93 2396.77C2475.05 2376.17 2484.04 2355.49 2495.36 2335.9C2506.68 2316.3 2520.13 2298.19 2534.92 2282.58C2549.72 2266.97 2565.57 2254.18 2581.59 2244.93C2597.6 2235.69 2613.46 2230.17 2628.25 2228.69C2643.05 2227.22 2656.49 2229.81 2667.81 2236.33C2679.14 2242.85 2688.12 2253.16 2694.25 2266.68C2700.38 2280.2 2703.53 2296.66 2703.53 2315.12L2778.67 2271.74Z" fill="#FFBCBC"/>
<path d="M1713.1 70.1232L2799.6 618.595L1773.44 1803.11L699.134 1179.2L1713.1 70.1232Z" fill="#FFCEAB"/>
<path d="M2808.42 639.338L3546.27 769.689L2551.22 283.206L1727.91 78.5166L2247.25 364.459L2808.42 639.338Z" fill="#FFC9A3"/>
<rect width="276.607" height="276.607" transform="matrix(0.866026 -0.5 2.20305e-08 1 1924.23 2432.49)" fill="#C8FFFF"/>
<rect width="15.4322" height="252.238" transform="matrix(0.854239 -0.51988 2.08997e-08 1 2155.17 2313.35)" fill="white"/>
<path d="M1914.27 2433.8L2165.68 2287.23L2186.29 2300.31L1934.88 2446.88L1914.27 2433.8Z" fill="#FAFAFA"/>
<rect width="22.3752" height="270.568" transform="matrix(0.854239 0.51988 -2.08997e-08 1 2155.17 2295.33)" fill="#F9F9F9"/>
<rect width="15.141" height="266.944" transform="matrix(0.854239 -0.51988 2.08997e-08 1 2174.28 2308.19)" fill="white"/>
<path d="M1925.33 2680.87L2156.17 2546.29L2176.78 2559.37L1945.94 2693.95L1925.33 2680.87Z" fill="#FAFAFA"/>
<path d="M1946.77 2551.15L2157.57 2427.76L2172.57 2436.43L1946.77 2566.64L1946.77 2551.15Z" fill="#EEEEEE"/>
<rect width="15.4322" height="252.238" transform="matrix(0.854239 -0.51988 2.08997e-08 1 2045.63 2368.96)" fill="white"/>
<rect width="15.141" height="264.688" transform="matrix(0.854239 -0.51988 2.08997e-08 1 2060.56 2377.86)" fill="white"/>
<path d="M2045.38 2368.89L2058.59 2360.85L2073.6 2369.99L2060.39 2378.02L2045.38 2368.89Z" fill="#FAFAFA"/>
<rect width="17.4704" height="263.782" transform="matrix(0.854239 0.51988 -2.08997e-08 1 2045.63 2368.96)" fill="#F9F9F9"/>
<rect width="270.611" height="18.3566" transform="matrix(0.866026 -0.5 2.20305e-08 1 1940.2 2570.55)" fill="white"/>
<rect width="270.611" height="18.3566" transform="matrix(0.866026 -0.5 2.20305e-08 1 1940.2 2570.55)" fill="white"/>
<rect width="270.611" height="18.3566" transform="matrix(0.866026 -0.5 2.20305e-08 1 1940.27 2442.21)" fill="white"/>
<rect width="290.333" height="18.3566" transform="matrix(0.866026 -0.5 2.20305e-08 1 1935.85 2695.59)" fill="white"/>
<rect width="15.4322" height="252.238" transform="matrix(0.854239 -0.51988 2.08997e-08 1 1915.35 2438.66)" fill="white"/>
<path d="M1915.26 2434.27L1928.46 2426.24L1947.78 2437.99L1934.57 2446.03L1915.26 2434.27Z" fill="#FAFAFA"/>
<rect width="22.3752" height="268.442" transform="matrix(0.854239 0.51988 -2.08997e-08 1 1915.35 2434)" fill="#F9F9F9"/>
<rect width="15.141" height="268.29" transform="matrix(0.854239 -0.51988 2.08997e-08 1 1934.47 2445.89)" fill="white"/>
<rect width="276.607" height="276.607" transform="matrix(-2.58096e-07 1 -0.866025 -0.5 1629.34 1865.48)" fill="#C8FFFF"/>
<rect width="15.4322" height="252.238" transform="matrix(0.0231099 0.999733 -0.866025 -0.5 1617.05 2125.05)" fill="white"/>
<path d="M1633.19 1856.2L1634.43 2147.22L1612.38 2158.74L1611.15 1867.73L1633.19 1856.2Z" fill="#FAFAFA"/>
<rect width="22.3752" height="270.568" transform="matrix(-0.877349 0.479853 -0.866025 -0.5 1632.65 2134.05)" fill="#F9F9F9"/>
<rect width="15.141" height="267.353" transform="matrix(0.0231099 0.999733 -0.866025 -0.5 1611.96 2144.18)" fill="white"/>
<path d="M1413.7 1742.25L1414.83 2009.46L1393.2 2020.76L1392.07 1753.56L1413.7 1742.25Z" fill="#FAFAFA"/>
<path d="M1515.3 1825.67L1516.76 2069.92L1501.76 2078.58L1501.89 1817.93L1515.3 1825.67Z" fill="#EEEEEE"/>
<rect width="15.4322" height="252.238" transform="matrix(0.0231099 0.999733 -0.866025 -0.5 1623.66 2002.4)" fill="white"/>
<rect width="15.141" height="264.688" transform="matrix(0.0231099 0.999733 -0.866025 -0.5 1608.49 2010.86)" fill="white"/>
<path d="M1623.84 2002.22L1624.2 2017.67L1608.78 2026.11L1608.43 2010.65L1623.84 2002.22Z" fill="#FAFAFA"/>
<rect width="17.4704" height="263.782" transform="matrix(-0.877349 0.479853 -0.866025 -0.5 1623.65 2002.4)" fill="#F9F9F9"/>
<rect width="270.611" height="18.3566" transform="matrix(-2.58096e-07 1 -0.866025 -0.5 1501.8 1810.3)" fill="white"/>
<rect width="270.611" height="18.3566" transform="matrix(-2.58096e-07 1 -0.866025 -0.5 1501.8 1810.3)" fill="white"/>
<rect width="270.611" height="18.3566" transform="matrix(-2.58096e-07 1 -0.866025 -0.5 1612.89 1874.52)" fill="white"/>
<rect width="290.333" height="18.3566" transform="matrix(-2.58096e-07 1 -0.866025 -0.5 1395.68 1744)" fill="white"/>
<rect width="15.4322" height="252.238" transform="matrix(0.0231099 0.999733 -0.866025 -0.5 1628.45 1854.71)" fill="white"/>
<path d="M1632.29 1856.83L1632.65 1872.28L1612.81 1883.13L1612.45 1867.68L1632.29 1856.83Z" fill="#FAFAFA"/>
<rect width="22.3752" height="268.442" transform="matrix(-0.877349 0.479853 -0.866025 -0.5 1632.48 1857.04)" fill="#F9F9F9"/>
<rect width="15.141" height="268.29" transform="matrix(0.0231099 0.999733 -0.866025 -0.5 1612.63 1867.66)" fill="white"/>
<rect width="276.607" height="276.607" transform="matrix(-2.58096e-07 1 -0.866025 -0.5 1204.05 1620.7)" fill="#C8FFFF"/>
<rect width="15.4322" height="252.238" transform="matrix(0.0231099 0.999733 -0.866025 -0.5 1191.76 1880.27)" fill="white"/>
<path d="M1207.9 1611.43L1209.14 1904.17L1187.51 1915.48L1186.27 1622.74L1207.9 1611.43Z" fill="#FAFAFA"/>
<rect width="22.3752" height="270.568" transform="matrix(-0.877349 0.479853 -0.866025 -0.5 1207.36 1889.28)" fill="#F9F9F9"/>
<rect width="15.141" height="266.456" transform="matrix(0.0231099 0.999733 -0.866025 -0.5 1187.85 1899.99)" fill="white"/>
<path d="M988.407 1497.48L989.537 1764.68L967.905 1775.99L966.775 1508.79L988.407 1497.48Z" fill="#FAFAFA"/>
<path d="M1090.01 1580.89L1091.47 1825.14L1076.47 1833.8L1076.6 1573.14L1090.01 1580.89Z" fill="#EEEEEE"/>
<rect width="15.4322" height="252.238" transform="matrix(0.0231099 0.999733 -0.866025 -0.5 1198.38 1757.61)" fill="white"/>
<rect width="15.141" height="264.688" transform="matrix(0.0231099 0.999733 -0.866025 -0.5 1183.21 1766.08)" fill="white"/>
<path d="M1198.56 1757.44L1198.92 1772.89L1183.5 1781.32L1183.14 1765.87L1198.56 1757.44Z" fill="#FAFAFA"/>
<rect width="17.4704" height="263.782" transform="matrix(-0.877349 0.479853 -0.866025 -0.5 1198.37 1757.61)" fill="#F9F9F9"/>
<rect width="270.611" height="18.3566" transform="matrix(-2.58096e-07 1 -0.866025 -0.5 1076.52 1565.51)" fill="white"/>
<rect width="270.611" height="18.3566" transform="matrix(-2.58096e-07 1 -0.866025 -0.5 1076.52 1565.51)" fill="white"/>
<rect width="270.611" height="18.3566" transform="matrix(-2.58096e-07 1 -0.866025 -0.5 1187.61 1629.73)" fill="white"/>
<rect width="290.333" height="18.3566" transform="matrix(-2.58096e-07 1 -0.866025 -0.5 970.397 1499.21)" fill="white"/>
<rect width="15.4322" height="252.238" transform="matrix(0.0231099 0.999733 -0.866025 -0.5 1203.16 1609.92)" fill="white"/>
<path d="M1207 1612.04L1207.36 1627.49L1187.52 1638.34L1187.16 1622.89L1207 1612.04Z" fill="#FAFAFA"/>
<rect width="22.3752" height="268.442" transform="matrix(-0.877349 0.479853 -0.866025 -0.5 1207.19 1612.26)" fill="#F9F9F9"/>
<rect width="15.141" height="268.29" transform="matrix(0.0231099 0.999733 -0.866025 -0.5 1187.34 1622.87)" fill="white"/>
<rect width="276.607" height="276.607" transform="matrix(0.866026 -0.5 2.20305e-08 1 2841.88 1927)" fill="#C8FFFF"/>
<rect width="15.4322" height="252.238" transform="matrix(0.854239 -0.51988 2.08997e-08 1 3072.82 1807.85)" fill="white"/>
<path d="M2831.92 1928.3L3083.33 1781.73L3103.93 1794.81L2852.53 1941.38L2831.92 1928.3Z" fill="#FAFAFA"/>
<rect width="22.3752" height="270.568" transform="matrix(0.854239 0.51988 -2.08997e-08 1 3072.82 1789.83)" fill="#F9F9F9"/>
<rect width="15.141" height="266.041" transform="matrix(0.854239 -0.51988 2.08997e-08 1 3091.93 1802.69)" fill="white"/>
<path d="M2842.98 2175.37L3073.82 2040.79L3094.43 2053.87L2863.59 2188.45L2842.98 2175.37Z" fill="#FAFAFA"/>
<path d="M2864.42 2045.66L3075.22 1922.27L3090.22 1930.93L2864.42 2061.15L2864.42 2045.66Z" fill="#EEEEEE"/>
<rect width="15.4322" height="252.238" transform="matrix(0.854239 -0.51988 2.08997e-08 1 2963.28 1863.46)" fill="white"/>
<rect width="15.141" height="264.688" transform="matrix(0.854239 -0.51988 2.08997e-08 1 2978.21 1872.36)" fill="white"/>
<path d="M2963.03 1863.39L2976.24 1855.35L2991.24 1864.49L2978.04 1872.53L2963.03 1863.39Z" fill="#FAFAFA"/>
<rect width="17.4704" height="263.782" transform="matrix(0.854239 0.51988 -2.08997e-08 1 2963.28 1863.47)" fill="#F9F9F9"/>
<rect width="270.611" height="18.3566" transform="matrix(0.866026 -0.5 2.20305e-08 1 2857.85 2065.05)" fill="white"/>
<rect width="270.611" height="18.3566" transform="matrix(0.866026 -0.5 2.20305e-08 1 2857.92 1936.73)" fill="white"/>
<rect width="290.333" height="18.3566" transform="matrix(0.866026 -0.5 2.20305e-08 1 2853.5 2190.09)" fill="white"/>
<rect width="15.4322" height="252.238" transform="matrix(0.854239 -0.51988 2.08997e-08 1 2833 1933.16)" fill="white"/>
<path d="M2832.9 1928.77L2846.11 1920.74L2865.42 1932.49L2852.22 1940.53L2832.9 1928.77Z" fill="#FAFAFA"/>
<rect width="22.3752" height="268.442" transform="matrix(0.854239 0.51988 -2.08997e-08 1 2833 1928.5)" fill="#F9F9F9"/>
<rect width="15.141" height="268.29" transform="matrix(0.854239 -0.51988 2.08997e-08 1 2852.12 1940.39)" fill="white"/>
<rect width="276.607" height="276.607" transform="matrix(0.866026 -0.5 2.20305e-08 1 2439.41 1628.95)" fill="#C8FFFF"/>
<rect width="15.4322" height="252.238" transform="matrix(0.854239 -0.51988 2.08997e-08 1 2670.35 1509.8)" fill="white"/>
<path d="M2429.45 1630.25L2680.86 1483.67L2701.47 1496.76L2450.06 1643.33L2429.45 1630.25Z" fill="#FAFAFA"/>
<rect width="22.3752" height="270.568" transform="matrix(0.854239 0.51988 -2.08997e-08 1 2670.35 1491.78)" fill="#F9F9F9"/>
<rect width="15.141" height="266.041" transform="matrix(0.854239 -0.51988 2.08997e-08 1 2689.46 1504.64)" fill="white"/>
<path d="M2440.51 1877.32L2671.35 1742.74L2691.96 1755.82L2461.12 1890.4L2440.51 1877.32Z" fill="#FAFAFA"/>
<path d="M2461.95 1747.62L2672.75 1624.23L2687.75 1632.89L2461.95 1763.1L2461.95 1747.62Z" fill="#EEEEEE"/>
<rect width="15.4322" height="252.238" transform="matrix(0.854239 -0.51988 2.08997e-08 1 2560.81 1565.42)" fill="white"/>
<rect width="15.141" height="264.688" transform="matrix(0.854239 -0.51988 2.08997e-08 1 2575.74 1574.32)" fill="white"/>
<path d="M2560.56 1565.35L2573.77 1557.31L2588.78 1566.45L2575.57 1574.48L2560.56 1565.35Z" fill="#FAFAFA"/>
<rect width="17.4704" height="263.782" transform="matrix(0.854239 0.51988 -2.08997e-08 1 2560.81 1565.43)" fill="#F9F9F9"/>
<rect width="270.611" height="18.3566" transform="matrix(0.866026 -0.5 2.20305e-08 1 2455.38 1767)" fill="white"/>
<rect width="270.611" height="18.3566" transform="matrix(0.866026 -0.5 2.20305e-08 1 2455.45 1638.67)" fill="white"/>
<rect width="290.333" height="18.3566" transform="matrix(0.866026 -0.5 2.20305e-08 1 2451.03 1892.05)" fill="white"/>
<rect width="15.4322" height="252.238" transform="matrix(0.854239 -0.51988 2.08997e-08 1 2430.53 1635.12)" fill="white"/>
<path d="M2430.44 1630.73L2443.64 1622.7L2462.96 1634.45L2449.75 1642.49L2430.44 1630.73Z" fill="#FAFAFA"/>
<rect width="22.3752" height="268.442" transform="matrix(0.854239 0.51988 -2.08997e-08 1 2430.53 1630.46)" fill="#F9F9F9"/>
<rect width="15.141" height="268.29" transform="matrix(0.854239 -0.51988 2.08997e-08 1 2449.65 1642.35)" fill="white"/>
<rect width="408.511" height="276.607" transform="matrix(0.866026 -0.5 2.20305e-08 1 1944.59 1885.07)" fill="#C8FFFF"/>
<path d="M1921.88 1887.57L2288.47 1673.85L2311.07 1688.19L1944.48 1901.91L1921.88 1887.57Z" fill="#FAFAFA"/>
<rect width="22.3752" height="257.325" transform="matrix(0.854239 0.51988 -2.08997e-08 1 2280.68 1688.42)" fill="#F9F9F9"/>
<rect width="15.141" height="264.66" transform="matrix(0.854239 -0.51988 2.08997e-08 1 2298.65 1699.75)" fill="white"/>
<path d="M1935.61 2134.75L2281.15 1933.29L2301.76 1946.37L1956.21 2147.83L1935.61 2134.75Z" fill="#FAFAFA"/>
<path d="M1964.07 2000.99L2286.1 1813.38L2301.1 1822.04L1957.04 2020.53L1964.07 2000.99Z" fill="#EEEEEE"/>
<rect width="15.4322" height="252.238" transform="matrix(0.854239 -0.51988 2.08997e-08 1 2117.72 1788.49)" fill="white"/>
<rect width="15.141" height="261.506" transform="matrix(0.854239 -0.51988 2.08997e-08 1 2132.65 1797.39)" fill="white"/>
<path d="M2117.47 1788.42L2130.68 1780.38L2145.69 1789.52L2132.48 1797.55L2117.47 1788.42Z" fill="#FAFAFA"/>
<rect width="17.4704" height="263.782" transform="matrix(0.854239 0.51988 -2.08997e-08 1 2117.72 1788.5)" fill="#F9F9F9"/>
<rect width="405.238" height="18.3566" transform="matrix(0.866026 -0.5 2.20305e-08 1 1950.47 2024.44)" fill="white"/>
<rect width="417.134" height="18.3566" transform="matrix(0.866026 -0.5 2.20305e-08 1 1950.54 1896.12)" fill="white"/>
<rect width="410.267" height="18.3566" transform="matrix(0.866026 -0.5 2.20305e-08 1 1946.11 2149.48)" fill="white"/>
<rect width="15.4322" height="252.238" transform="matrix(0.854239 -0.51988 2.08997e-08 1 1925.62 1892.55)" fill="white"/>
<path d="M1925.52 1888.16L1938.73 1880.13L1958.04 1891.88L1944.84 1899.92L1925.52 1888.16Z" fill="#FAFAFA"/>
<rect width="22.3752" height="268.442" transform="matrix(0.854239 0.51988 -2.08997e-08 1 1925.62 1887.89)" fill="#F9F9F9"/>
<rect width="15.141" height="268.29" transform="matrix(0.854239 -0.51988 2.08997e-08 1 1944.74 1899.78)" fill="white"/>
<rect width="276.607" height="276.607" transform="matrix(0.866026 -0.5 2.20305e-08 1 3244.34 1705.02)" fill="#C8FFFF"/>
<rect width="15.4322" height="252.238" transform="matrix(0.854239 -0.51988 2.08997e-08 1 3475.27 1585.86)" fill="white"/>
<path d="M3234.38 1706.31L3485.78 1559.74L3506.39 1572.82L3254.98 1719.39L3234.38 1706.31Z" fill="#FAFAFA"/>
<rect width="22.3752" height="270.568" transform="matrix(0.854239 0.51988 -2.08997e-08 1 3475.27 1567.85)" fill="#F9F9F9"/>
<rect width="15.141" height="271.108" transform="matrix(0.854239 -0.51988 2.08997e-08 1 3494.39 1580.7)" fill="white"/>
<path d="M3245.44 1953.38L3476.28 1818.8L3496.89 1831.88L3266.05 1966.46L3245.44 1953.38Z" fill="#FAFAFA"/>
<path d="M3266.88 1823.68L3477.67 1700.29L3492.68 1708.95L3266.88 1839.17L3266.88 1823.68Z" fill="#EEEEEE"/>
<rect width="15.4322" height="252.238" transform="matrix(0.854239 -0.51988 2.08997e-08 1 3365.74 1641.48)" fill="white"/>
<rect width="15.141" height="264.688" transform="matrix(0.854239 -0.51988 2.08997e-08 1 3380.66 1650.38)" fill="white"/>
<path d="M3365.49 1641.42L3378.69 1633.38L3393.7 1642.51L3380.5 1650.55L3365.49 1641.42Z" fill="#FAFAFA"/>
<rect width="17.4704" height="263.782" transform="matrix(0.854239 0.51988 -2.08997e-08 1 3365.74 1641.48)" fill="#F9F9F9"/>
<rect width="270.611" height="18.3566" transform="matrix(0.866026 -0.5 2.20305e-08 1 3260.31 1843.06)" fill="white"/>
<rect width="270.611" height="18.3566" transform="matrix(0.866026 -0.5 2.20305e-08 1 3260.38 1714.74)" fill="white"/>
<rect width="290.333" height="18.3566" transform="matrix(0.866026 -0.5 2.20305e-08 1 3255.95 1968.12)" fill="white"/>
<rect width="15.4322" height="252.238" transform="matrix(0.854239 -0.51988 2.08997e-08 1 3235.46 1711.19)" fill="white"/>
<path d="M3235.36 1706.8L3248.57 1698.76L3267.88 1710.52L3254.68 1718.55L3235.36 1706.8Z" fill="#FAFAFA"/>
<rect width="22.3752" height="268.442" transform="matrix(0.854239 0.51988 -2.08997e-08 1 3235.46 1706.53)" fill="#F9F9F9"/>
<rect width="15.141" height="268.29" transform="matrix(0.854239 -0.51988 2.08997e-08 1 3254.57 1718.41)" fill="white"/>
<rect width="408.511" height="276.607" transform="matrix(0.866026 -0.5 2.20305e-08 1 2922.4 1383.72)" fill="#C8FFFF"/>
<path d="M2899.69 1386.22L3266.27 1172.5L3288.87 1186.84L2922.29 1400.56L2899.69 1386.22Z" fill="#FAFAFA"/>
<rect width="22.3752" height="257.325" transform="matrix(0.854239 0.51988 -2.08997e-08 1 3258.48 1187.07)" fill="#F9F9F9"/>
<rect width="15.141" height="264.66" transform="matrix(0.854239 -0.51988 2.08997e-08 1 3276.46 1198.4)" fill="white"/>
<path d="M2913.41 1633.39L3258.96 1431.94L3279.56 1445.02L2934.02 1646.47L2913.41 1633.39Z" fill="#FAFAFA"/>
<path d="M2941.88 1499.63L3263.91 1312.02L3278.91 1320.69L2934.85 1519.18L2941.88 1499.63Z" fill="#EEEEEE"/>
<rect width="15.4322" height="252.238" transform="matrix(0.854239 -0.51988 2.08997e-08 1 3095.53 1287.15)" fill="white"/>
<rect width="15.141" height="261.506" transform="matrix(0.854239 -0.51988 2.08997e-08 1 3110.46 1296.05)" fill="white"/>
<path d="M3095.28 1287.08L3108.49 1279.04L3123.5 1288.18L3110.29 1296.21L3095.28 1287.08Z" fill="#FAFAFA"/>
<rect width="17.4704" height="263.782" transform="matrix(0.854239 0.51988 -2.08997e-08 1 3095.53 1287.15)" fill="#F9F9F9"/>
<rect width="405.238" height="18.3566" transform="matrix(0.866026 -0.5 2.20305e-08 1 2928.28 1523.09)" fill="white"/>
<rect width="417.134" height="18.3566" transform="matrix(0.866026 -0.5 2.20305e-08 1 2928.35 1394.77)" fill="white"/>
<rect width="410.267" height="18.3566" transform="matrix(0.866026 -0.5 2.20305e-08 1 2923.92 1648.13)" fill="white"/>
<rect width="15.4322" height="252.238" transform="matrix(0.854239 -0.51988 2.08997e-08 1 2903.42 1391.2)" fill="white"/>
<path d="M2903.33 1386.81L2916.53 1378.77L2935.85 1390.53L2922.64 1398.57L2903.33 1386.81Z" fill="#FAFAFA"/>
<rect width="22.3752" height="268.442" transform="matrix(0.854239 0.51988 -2.08997e-08 1 2903.42 1386.54)" fill="#F9F9F9"/>
<rect width="15.141" height="268.29" transform="matrix(0.854239 -0.51988 2.08997e-08 1 2922.54 1398.43)" fill="white"/>
</svg>
