<svg width="352" id="ice" height="377" viewBox="0 0 352 377" fill="none" xmlns="http://www.w3.org/2000/svg"> <path d="M226.75 15.3005L299.955 57.5655C330.74 75.3395 349.705 108.187 349.705 143.735V228.265C349.705 263.813 330.74 296.661 299.955 314.435L226.75 356.699C195.965 374.473 158.035 374.473 127.25 356.699L54.0449 314.435C23.2595 296.661 4.29492 263.813 4.29492 228.265V143.735C4.29492 108.187 23.2595 75.3395 54.0449 57.5655L127.25 15.3005C158.035 -2.47344 195.965 -2.47344 226.75 15.3005Z" fill="--blue" stroke="#0098B9"/> <line x1="20.261" y1="89.5735" x2="176.214" y2="184.995" stroke="#0098B9"/> <line x1="331.262" y1="90.4256" x2="175.476" y2="186.445" stroke="#0098B9"/> <path d="M178 186C178.001 185.724 177.779 185.499 177.503 185.497C177.227 185.496 177.002 185.718 177 185.995L178 186ZM177 370L178 186L177 185.995L176 369.995L177 370Z" fill="#0098B9"/> </svg>