<svg width="676" height="570" viewBox="0 0 676 570" fill="none" xmlns="http://www.w3.org/2000/svg">
<path d="M33.2934 534.799L20.2954 560.437L3.97747 532.174L33.2934 534.799Z" fill="#FF8D23"/>
<path d="M642.928 180.322L655.8 154.08L672.808 183.587L642.928 180.322Z" fill="#D14BDD"/>
<rect width="461.88" height="461.88" rx="45" transform="matrix(1 2.58096e-08 -0.5 0.866025 231.14 171.767)" fill="url(#paint0_linear_0_1)"/>
<rect width="461.88" height="461.88" rx="45" transform="matrix(1 2.58096e-08 -0.5 0.866025 214.41 142.79)" fill="url(#paint1_radial_0_1)"/>
<rect width="461.88" height="461.88" rx="45" transform="matrix(1 2.58096e-08 -0.5 0.866025 214.41 142.79)" fill="url(#paint2_radial_0_1)"/>
<path d="M352.821 262.454C409.365 251.999 430.683 310.917 387.072 356.42C330.804 415.129 277.678 415.302 255.867 394.93C281.501 370.166 334.481 389.816 369.36 329.404C397.615 270.843 323.355 262.454 352.821 262.454Z" fill="#E8E8E8"/>
<path d="M247.246 388.161C252.262 394.731 262.133 400.315 267.211 401.931L273.019 391.652L237.842 366.042C239.399 370.44 242.03 381.329 247.246 388.161Z" fill="#E8E8E8"/>
<path d="M286.155 373.906C249.76 346.624 322.436 265.838 383.981 303.222L382.299 286.201L348.925 274.977L305.034 286.87L264.412 320.172L263.55 359.684L274.852 366.795L286.155 373.906Z" fill="#D9D9D9"/>
<path d="M244.63 474.206C152.17 472.189 148.067 476.548 134.482 427.762L236.623 448.526L316.822 449.003L366.237 434.867L413.981 392.908L450.906 333.521L489.003 263.041L486.411 206.394C490.624 206.802 488.348 198.864 515.592 231.023C531.647 249.974 499.406 296.808 477.301 339.873C456.919 379.581 437.023 411.955 414.322 432.863C395.034 450.628 385.611 477.28 244.63 474.206Z" fill="#EAEAEA"/>
<path d="M178.607 395.278C167.402 419.172 182.692 433.955 189.084 436.388L167.01 440.8L155.61 421.055L191.076 326.337L247.937 239.152L294.526 207.33L469.786 201.219L506.179 218.655L504.309 251.174L477.218 252.8L475.19 247.721C470.448 235.848 459.372 227.701 446.626 226.712L419.118 226.305C402.31 225.404 342.412 224.531 314.358 229.213C286.303 233.895 264.582 247.643 254.273 263.903C233.06 297.363 189.812 371.385 178.607 395.278Z" fill="#D9D9D9"/>
<path d="M177.863 327.963C157 364.099 154.552 368.633 147.053 382.826C139.572 396.991 136.403 406.659 135.058 415.119C133.662 423.87 134.267 431.293 137.957 438.689C141.64 446.09 147.002 450.636 154.445 454.046C161.645 457.344 170.754 459.59 185.618 460.227C200.521 460.862 205.307 461.028 244.182 461.028C283.058 461.028 288.015 460.867 303.655 460.224C319.27 459.573 330.966 457.33 341.966 454.043C353.344 450.642 363.955 446.096 376.183 438.697C388.414 431.305 397.602 423.881 406.308 415.136C414.735 406.67 422.732 396.999 431.606 382.837C440.495 368.645 443.281 364.112 464.142 327.98C485.007 291.842 487.447 287.321 494.946 273.129C502.426 258.964 505.602 249.284 506.95 240.819C508.345 232.07 507.721 224.658 504.027 217.265C500.344 209.864 494.982 205.318 487.539 201.909C480.323 198.638 471.214 196.393 456.365 195.727C441.465 195.09 436.694 194.923 397.818 194.923C358.942 194.923 353.967 195.09 338.331 195.727C322.708 196.392 311.009 198.638 300.019 201.909C288.636 205.318 278.025 209.864 265.796 217.265C253.56 224.666 244.396 232.068 235.686 240.827C227.249 249.309 219.251 258.983 210.375 273.148C201.486 287.34 198.708 291.859 177.839 328.005L177.863 327.963ZM196.767 339.899C198.807 336.357 201.095 332.404 203.659 327.963C224.169 292.438 226.737 288.227 235.523 274.198C243.651 261.226 250.048 254.185 254.715 249.495C260.894 243.286 266.552 238.859 274.249 234.205C281.947 229.548 288.383 226.665 296.459 224.248C302.55 222.427 311.378 220.256 325.676 219.666C341.134 219.028 345.746 218.89 383.948 218.89C422.15 218.89 426.603 219.028 441.325 219.666C454.939 220.259 461.262 222.427 465.25 224.248C470.538 226.659 473.627 229.548 475.946 234.205C478.267 238.862 478.816 243.283 477.824 249.495C477.087 254.179 475.345 261.226 468.494 274.198C461.082 288.225 458.798 292.438 438.288 327.963C417.775 363.491 415.195 367.702 406.411 381.728C398.277 394.701 391.88 401.742 387.212 406.435C381.032 412.644 375.37 417.079 367.671 421.736C359.973 426.393 353.549 429.275 345.47 431.693C339.379 433.514 330.551 435.684 316.253 436.275C300.796 436.912 296.189 437.04 257.963 437.04C219.738 437.04 215.302 436.912 200.581 436.275C186.967 435.681 180.643 433.514 176.649 431.693C171.361 429.281 168.257 426.393 165.936 421.736C163.614 417.079 163.074 412.644 164.058 406.435C164.798 401.744 166.538 394.701 173.387 381.728C179.877 369.454 182.444 364.697 196.731 339.899L196.767 339.899ZM268.432 256.94C263.342 265.755 266.898 272.907 276.385 272.907C285.868 272.907 297.691 265.755 302.78 256.94C307.87 248.125 304.305 240.974 294.821 240.974C285.338 240.974 273.515 248.125 268.426 256.94L268.432 256.94ZM247.497 327.963C225.71 365.698 240.961 396.292 281.558 396.292C322.154 396.292 372.717 365.698 394.503 327.963C416.289 290.229 401.047 259.646 360.451 259.646C319.854 259.646 269.283 290.229 247.497 327.963ZM273.292 327.963C287.433 303.47 320.26 283.612 346.614 283.612C372.964 283.612 382.863 303.47 368.722 327.963C354.58 352.459 321.752 372.315 295.401 372.315C269.048 372.315 259.15 352.459 273.292 327.963Z" fill="white"/>
<defs>
<linearGradient id="paint0_linear_0_1" x1="-36.8374" y1="379.967" x2="470.299" y2="148.535" gradientUnits="userSpaceOnUse">
<stop offset="0.00219848" stop-color="#FF8310"/>
<stop offset="0.160855" stop-color="#FFF975"/>
<stop offset="0.62052" stop-color="#FF2828"/>
<stop offset="0.790563" stop-color="#F570DB"/>
<stop offset="1" stop-color="#D14BDD"/>
</linearGradient>
<radialGradient id="paint1_radial_0_1" cx="0" cy="0" r="1" gradientUnits="userSpaceOnUse" gradientTransform="translate(122.687 497.455) rotate(-90) scale(457.757 425.75)">
<stop stop-color="#FFDD55"/>
<stop offset="0.1" stop-color="#FFDD55"/>
<stop offset="0.5" stop-color="#FF543E"/>
<stop offset="1" stop-color="#C837AB"/>
</radialGradient>
<radialGradient id="paint2_radial_0_1" cx="0" cy="0" r="1" gradientUnits="userSpaceOnUse" gradientTransform="translate(-77.3674 33.2731) rotate(63.6051) scale(261.74 804.011)">
<stop stop-color="#3771C8"/>
<stop offset="0.128" stop-color="#3771C8"/>
<stop offset="1" stop-color="#6600FF" stop-opacity="0"/>
</radialGradient>
</defs>
</svg>
