<svg width="3676" height="3513" viewBox="0 0 3676 3513" fill="none" xmlns="http://www.w3.org/2000/svg">
<rect width="2873.3" height="1370.75" transform="matrix(0.866025 -0.499998 0.866025 0.499998 0 1771.64)" fill="#84EB00"/>
<rect width="2758" height="1213.31" transform="matrix(0.866025 -0.499998 0.866025 0.499998 116.14 1768.85)" fill="#B5FF56"/>
<ellipse cx="488.238" cy="561.856" rx="488.238" ry="561.856" transform="matrix(0.866026 -0.499998 -0.866026 -0.499998 1901.85 1920.95)" fill="#84EB00"/>
<ellipse cx="174.406" cy="193.139" rx="174.406" ry="193.139" transform="matrix(0.866026 -0.499998 -0.866026 -0.499998 2641.03 1124.76)" fill="#84EB00"/>
<ellipse cx="174.405" cy="193.139" rx="174.405" ry="193.139" transform="matrix(0.866026 -0.499998 -0.866026 -0.499998 1056.42 2028.88)" fill="#84EB00"/>
<path d="M1837.41 1132.72C1780.63 1106.95 1713.78 1090.66 1645.3 1085.9C1576.81 1081.14 1509.78 1088.12 1452.67 1105.97C1395.57 1123.82 1350.95 1151.72 1324.47 1186.17C1297.99 1220.61 1290.83 1260.03 1303.9 1299.46C1316.96 1338.88 1349.67 1376.54 1397.89 1407.66C1446.1 1438.78 1507.66 1461.97 1574.76 1474.3C1641.87 1486.63 1711.52 1487.54 1774.91 1476.92C1838.29 1466.3 1892.56 1444.62 1930.86 1414.63L1783.12 1347.59C1764.54 1362.14 1738.19 1372.66 1707.43 1377.82C1676.67 1382.97 1642.86 1382.53 1610.29 1376.55C1577.72 1370.56 1547.84 1359.31 1524.44 1344.2C1501.04 1329.1 1485.16 1310.82 1478.82 1291.69C1472.47 1272.55 1475.95 1253.41 1488.8 1236.7C1501.66 1219.98 1523.31 1206.43 1551.03 1197.77C1578.75 1189.11 1611.28 1185.72 1644.52 1188.03C1677.76 1190.34 1710.21 1198.25 1737.77 1210.76L1837.41 1132.72Z" fill="#00CD2D"/>
<path d="M1822.16 1652.09C1877.12 1679.2 1942.96 1697.17 2011.36 1703.72C2079.76 1710.28 2147.64 1705.12 2206.42 1688.91C2265.19 1672.7 2312.23 1646.16 2341.58 1612.64C2370.93 1579.13 2381.27 1540.15 2371.29 1500.62C2361.32 1461.1 2331.47 1422.82 2285.54 1390.61C2239.6 1358.41 2179.64 1333.73 2113.22 1319.69C2046.81 1305.65 1976.93 1302.89 1912.43 1311.76C1847.92 1320.62 1791.69 1340.72 1750.83 1369.5L1893.85 1440.04C1913.68 1426.08 1940.97 1416.32 1972.28 1412.02C2003.59 1407.72 2037.5 1409.06 2069.74 1415.87C2101.97 1422.68 2131.08 1434.66 2153.37 1450.29C2175.67 1465.93 2190.15 1484.51 2194.99 1503.69C2199.84 1522.87 2194.82 1541.79 2180.57 1558.06C2166.33 1574.33 2143.5 1587.21 2114.97 1595.08C2086.44 1602.95 2053.49 1605.45 2020.3 1602.27C1987.1 1599.09 1955.14 1590.36 1928.47 1577.2L1822.16 1652.09Z" fill="#00CD2D"/>
<path d="M1321.74 1155.08L1428.65 1093.36L2361.96 1632.2L2255.05 1693.93L1321.74 1155.08Z" fill="#00CD2D"/>
<rect width="1371.66" height="278.06" transform="matrix(0.866025 0.499998 -2.20306e-08 1 0 1770.77)" fill="#7FE200"/>
<rect width="2871.93" height="274.491" transform="matrix(0.866025 -0.499998 2.20306e-08 1 1187.92 2456.33)" fill="#89F400"/>
</svg>
